<svg width="447" height="456" viewBox="0 0 447 456" fill="none" xmlns="http://www.w3.org/2000/svg">
<rect width="447" height="456" fill="#F9F8F8"/>
<circle cx="223.5" cy="177.5" r="160.5" fill="#2D6356"/>
<g filter="url(#filter0_dd_0_1)">
<path fill-rule="evenodd" clip-rule="evenodd" d="M280 60.5004C249 15.5 204.548 53.5408 217.5 86.0004C222.407 98.2966 231.847 108.021 240.949 117.397C255.873 132.771 269.886 147.206 261.5 170.5L260.5 172.5L259.5 170.5C211.5 75 106 200 95.0001 255C211.279 292.104 370.029 210.508 256 91C280 68 329.803 85.5619 343 125.5C345 131 352.117 131.94 354.5 125.5C358.517 114.612 327.105 63.2092 280 60.5004Z" fill="#F9F8F8"/>
</g>
<path d="M188 337.5V261.5V258H200.5V337.5H188Z" fill="#F9F8F8"/>
<g filter="url(#filter1_i_0_1)">
<path d="M117 243.5L117.5 243C228 40 323 269.5 117.5 243.5L117 243.5Z" fill="#32517A"/>
</g>
<path d="M229 249H216.5V340.17H229V249Z" fill="#F9F8F8"/>
<g filter="url(#filter2_i_0_1)">
<circle cx="250.5" cy="60.5" r="5.5" fill="#32517A"/>
</g>
<path d="M99.7812 397V393.906H101.25C102.521 393.906 103.417 393.802 103.938 393.594C104.458 393.385 104.771 393.094 104.875 392.719C104.979 392.344 105.031 391.927 105.031 391.469V361.719C105.031 361.24 104.969 360.865 104.844 360.594C104.74 360.302 104.427 360.094 103.906 359.969C103.385 359.844 102.5 359.781 101.25 359.781H99.7812V356.688C101.135 356.688 102.656 356.698 104.344 356.719C106.031 356.74 107.625 356.75 109.125 356.75C109.25 356.75 109.75 356.75 110.625 356.75C111.521 356.729 112.49 356.719 113.531 356.719C114.594 356.698 115.427 356.688 116.031 356.688V359.781H114.531C113.26 359.781 112.354 359.854 111.812 360C111.292 360.146 110.979 360.385 110.875 360.719C110.771 361.031 110.719 361.479 110.719 362.062V374.344H131.625V361.812C131.625 360.792 131.354 360.198 130.812 360.031C130.292 359.865 129.281 359.781 127.781 359.781H126.281V356.688C127.802 356.708 129.302 356.729 130.781 356.75C132.26 356.75 133.667 356.75 135 356.75C135.104 356.75 135.635 356.75 136.594 356.75C137.573 356.729 138.646 356.719 139.812 356.719C140.979 356.698 141.896 356.688 142.562 356.688V359.781H141.094C139.844 359.781 138.958 359.854 138.438 360C137.917 360.125 137.594 360.333 137.469 360.625C137.365 360.917 137.312 361.312 137.312 361.812V391.281C137.312 391.865 137.323 392.354 137.344 392.75C137.385 393.125 137.656 393.417 138.156 393.625C138.677 393.812 139.656 393.906 141.094 393.906H142.562V397C141.167 397 139.802 396.99 138.469 396.969C137.156 396.948 135.573 396.938 133.719 396.938C132.135 396.938 130.781 396.948 129.656 396.969C128.531 396.99 127.406 397 126.281 397V393.906H127.781C129.052 393.906 129.948 393.812 130.469 393.625C131.01 393.417 131.333 393.125 131.438 392.75C131.562 392.375 131.625 391.927 131.625 391.406V377.688H110.719V391.594C110.719 392.802 110.969 393.49 111.469 393.656C111.969 393.823 112.99 393.906 114.531 393.906H116.031V397C114.885 397 113.771 396.99 112.688 396.969C111.604 396.948 110.24 396.938 108.594 396.938C106.719 396.938 105.125 396.948 103.812 396.969C102.5 396.99 101.156 397 99.7812 397ZM144.125 397V393.906C145.521 393.885 146.531 393.844 147.156 393.781C147.802 393.719 148.25 393.531 148.5 393.219C148.771 392.906 149.042 392.385 149.312 391.656C149.354 391.573 149.594 390.958 150.031 389.812C150.469 388.646 151.042 387.146 151.75 385.312C152.458 383.458 153.229 381.438 154.062 379.25C154.896 377.062 155.729 374.885 156.562 372.719C157.417 370.531 158.188 368.521 158.875 366.688C159.583 364.833 160.156 363.333 160.594 362.188C161.052 361.021 161.292 360.396 161.312 360.312L162.562 356.688H169.781C169.781 356.688 170 357.281 170.438 358.469C170.896 359.656 171.49 361.229 172.219 363.188C172.969 365.125 173.792 367.271 174.688 369.625C175.583 371.958 176.479 374.302 177.375 376.656C178.292 379.01 179.125 381.188 179.875 383.188C180.625 385.167 181.24 386.781 181.719 388.031C182.198 389.26 182.448 389.906 182.469 389.969C182.844 390.948 183.156 391.708 183.406 392.25C183.656 392.792 183.948 393.188 184.281 393.438C184.615 393.667 185.094 393.812 185.719 393.875C186.344 393.917 187.219 393.938 188.344 393.938V397C187.198 397 186.042 396.99 184.875 396.969C183.729 396.948 182.542 396.938 181.312 396.938C179.979 396.938 178.688 396.938 177.438 396.938C176.188 396.938 174.635 396.958 172.781 397V394C173.26 394 173.688 394 174.062 394C174.438 394 174.781 393.99 175.094 393.969C176.031 393.948 176.656 393.885 176.969 393.781C177.302 393.656 177.469 393.448 177.469 393.156C177.469 393.052 177.448 392.917 177.406 392.75C177.365 392.562 177.312 392.365 177.25 392.156L173.938 382.219H157.594C157.573 382.26 157.448 382.615 157.219 383.281C156.99 383.948 156.708 384.76 156.375 385.719C156.042 386.677 155.698 387.646 155.344 388.625C155.01 389.583 154.729 390.396 154.5 391.062C154.271 391.708 154.156 392.042 154.156 392.062C153.948 392.583 153.844 392.958 153.844 393.188C153.844 393.583 154.052 393.823 154.469 393.906C154.906 393.99 155.625 394.031 156.625 394.031C156.938 394.031 157.281 394.031 157.656 394.031C158.031 394.031 158.438 394.031 158.875 394.031V397C157.729 397 156.562 396.99 155.375 396.969C154.208 396.948 153.042 396.938 151.875 396.938C150.604 396.938 149.417 396.938 148.312 396.938C147.208 396.938 145.812 396.958 144.125 397ZM158.781 379.062H172.781L165.781 359.625L158.781 379.062ZM189.281 397V393.906H191.312C193.042 393.906 194.052 393.667 194.344 393.188C194.656 392.688 194.812 391.958 194.812 391C194.812 390.979 194.812 390.448 194.812 389.406C194.812 388.365 194.812 387 194.812 385.312C194.812 383.604 194.812 381.74 194.812 379.719C194.812 377.677 194.802 375.646 194.781 373.625C194.781 371.583 194.781 369.719 194.781 368.031C194.781 366.323 194.781 364.958 194.781 363.938C194.781 362.896 194.781 362.375 194.781 362.375C194.781 361.312 194.531 360.625 194.031 360.312C193.552 359.979 192.542 359.802 191 359.781C190.75 359.76 190.479 359.75 190.188 359.75C189.917 359.75 189.615 359.75 189.281 359.75V356.688H205.406C213.74 356.688 220.01 358.312 224.219 361.562C228.427 364.792 230.531 369.74 230.531 376.406C230.531 381.01 229.656 384.844 227.906 387.906C226.177 390.948 223.49 393.229 219.844 394.75C216.198 396.25 211.5 397 205.75 397H189.281ZM200.5 393.531H206.906C212.531 393.531 216.854 392.208 219.875 389.562C222.917 386.896 224.438 382.552 224.438 376.531C224.438 370.948 222.938 366.812 219.938 364.125C216.938 361.438 212.604 360.094 206.938 360.094H200.5V393.531ZM231.812 397V393.906C233.208 393.885 234.219 393.844 234.844 393.781C235.49 393.719 235.938 393.531 236.188 393.219C236.458 392.906 236.729 392.385 237 391.656C237.042 391.573 237.281 390.958 237.719 389.812C238.156 388.646 238.729 387.146 239.438 385.312C240.146 383.458 240.917 381.438 241.75 379.25C242.583 377.062 243.417 374.885 244.25 372.719C245.104 370.531 245.875 368.521 246.562 366.688C247.271 364.833 247.844 363.333 248.281 362.188C248.74 361.021 248.979 360.396 249 360.312L250.25 356.688H257.469C257.469 356.688 257.688 357.281 258.125 358.469C258.583 359.656 259.177 361.229 259.906 363.188C260.656 365.125 261.479 367.271 262.375 369.625C263.271 371.958 264.167 374.302 265.062 376.656C265.979 379.01 266.812 381.188 267.562 383.188C268.312 385.167 268.927 386.781 269.406 388.031C269.885 389.26 270.135 389.906 270.156 389.969C270.531 390.948 270.844 391.708 271.094 392.25C271.344 392.792 271.635 393.188 271.969 393.438C272.302 393.667 272.781 393.812 273.406 393.875C274.031 393.917 274.906 393.938 276.031 393.938V397C274.885 397 273.729 396.99 272.562 396.969C271.417 396.948 270.229 396.938 269 396.938C267.667 396.938 266.375 396.938 265.125 396.938C263.875 396.938 262.323 396.958 260.469 397V394C260.948 394 261.375 394 261.75 394C262.125 394 262.469 393.99 262.781 393.969C263.719 393.948 264.344 393.885 264.656 393.781C264.99 393.656 265.156 393.448 265.156 393.156C265.156 393.052 265.135 392.917 265.094 392.75C265.052 392.562 265 392.365 264.938 392.156L261.625 382.219H245.281C245.26 382.26 245.135 382.615 244.906 383.281C244.677 383.948 244.396 384.76 244.062 385.719C243.729 386.677 243.385 387.646 243.031 388.625C242.698 389.583 242.417 390.396 242.188 391.062C241.958 391.708 241.844 392.042 241.844 392.062C241.635 392.583 241.531 392.958 241.531 393.188C241.531 393.583 241.74 393.823 242.156 393.906C242.594 393.99 243.312 394.031 244.312 394.031C244.625 394.031 244.969 394.031 245.344 394.031C245.719 394.031 246.125 394.031 246.562 394.031V397C245.417 397 244.25 396.99 243.062 396.969C241.896 396.948 240.729 396.938 239.562 396.938C238.292 396.938 237.104 396.938 236 396.938C234.896 396.938 233.5 396.958 231.812 397ZM246.469 379.062H260.469L253.469 359.625L246.469 379.062ZM276.969 397V393.906H279C280.729 393.906 281.74 393.667 282.031 393.188C282.344 392.688 282.5 391.958 282.5 391C282.5 390.979 282.5 390.448 282.5 389.406C282.5 388.365 282.5 387 282.5 385.312C282.5 383.604 282.5 381.74 282.5 379.719C282.5 377.677 282.49 375.646 282.469 373.625C282.469 371.583 282.469 369.719 282.469 368.031C282.469 366.323 282.469 364.958 282.469 363.938C282.469 362.896 282.469 362.375 282.469 362.375C282.469 361.312 282.219 360.625 281.719 360.312C281.24 359.979 280.229 359.802 278.688 359.781C278.438 359.76 278.167 359.75 277.875 359.75C277.604 359.75 277.302 359.75 276.969 359.75V356.688H293.094C301.427 356.688 307.698 358.312 311.906 361.562C316.115 364.792 318.219 369.74 318.219 376.406C318.219 381.01 317.344 384.844 315.594 387.906C313.865 390.948 311.177 393.229 307.531 394.75C303.885 396.25 299.188 397 293.438 397H276.969ZM288.188 393.531H294.594C300.219 393.531 304.542 392.208 307.562 389.562C310.604 386.896 312.125 382.552 312.125 376.531C312.125 370.948 310.625 366.812 307.625 364.125C304.625 361.438 300.292 360.094 294.625 360.094H288.188V393.531ZM319.5 397V393.906C320.896 393.885 321.906 393.844 322.531 393.781C323.177 393.719 323.625 393.531 323.875 393.219C324.146 392.906 324.417 392.385 324.688 391.656C324.729 391.573 324.969 390.958 325.406 389.812C325.844 388.646 326.417 387.146 327.125 385.312C327.833 383.458 328.604 381.438 329.438 379.25C330.271 377.062 331.104 374.885 331.938 372.719C332.792 370.531 333.562 368.521 334.25 366.688C334.958 364.833 335.531 363.333 335.969 362.188C336.427 361.021 336.667 360.396 336.688 360.312L337.938 356.688H345.156C345.156 356.688 345.375 357.281 345.812 358.469C346.271 359.656 346.865 361.229 347.594 363.188C348.344 365.125 349.167 367.271 350.062 369.625C350.958 371.958 351.854 374.302 352.75 376.656C353.667 379.01 354.5 381.188 355.25 383.188C356 385.167 356.615 386.781 357.094 388.031C357.573 389.26 357.823 389.906 357.844 389.969C358.219 390.948 358.531 391.708 358.781 392.25C359.031 392.792 359.323 393.188 359.656 393.438C359.99 393.667 360.469 393.812 361.094 393.875C361.719 393.917 362.594 393.938 363.719 393.938V397C362.573 397 361.417 396.99 360.25 396.969C359.104 396.948 357.917 396.938 356.688 396.938C355.354 396.938 354.062 396.938 352.812 396.938C351.562 396.938 350.01 396.958 348.156 397V394C348.635 394 349.062 394 349.438 394C349.812 394 350.156 393.99 350.469 393.969C351.406 393.948 352.031 393.885 352.344 393.781C352.677 393.656 352.844 393.448 352.844 393.156C352.844 393.052 352.823 392.917 352.781 392.75C352.74 392.562 352.688 392.365 352.625 392.156L349.312 382.219H332.969C332.948 382.26 332.823 382.615 332.594 383.281C332.365 383.948 332.083 384.76 331.75 385.719C331.417 386.677 331.073 387.646 330.719 388.625C330.385 389.583 330.104 390.396 329.875 391.062C329.646 391.708 329.531 392.042 329.531 392.062C329.323 392.583 329.219 392.958 329.219 393.188C329.219 393.583 329.427 393.823 329.844 393.906C330.281 393.99 331 394.031 332 394.031C332.312 394.031 332.656 394.031 333.031 394.031C333.406 394.031 333.812 394.031 334.25 394.031V397C333.104 397 331.938 396.99 330.75 396.969C329.583 396.948 328.417 396.938 327.25 396.938C325.979 396.938 324.792 396.938 323.688 396.938C322.583 396.938 321.188 396.958 319.5 397ZM334.156 379.062H348.156L341.156 359.625L334.156 379.062ZM161.805 440V438.26H162.631C163.346 438.26 163.85 438.201 164.143 438.084C164.436 437.967 164.611 437.803 164.67 437.592C164.729 437.381 164.758 437.146 164.758 436.889V420.154C164.758 419.885 164.723 419.674 164.652 419.521C164.594 419.357 164.418 419.24 164.125 419.17C163.832 419.1 163.334 419.064 162.631 419.064H161.805V417.324C162.566 417.324 163.422 417.33 164.371 417.342C165.32 417.354 166.217 417.359 167.061 417.359C167.131 417.359 167.412 417.359 167.904 417.359C168.408 417.348 168.953 417.342 169.539 417.342C170.137 417.33 170.605 417.324 170.945 417.324V419.064H170.102C169.387 419.064 168.877 419.105 168.572 419.188C168.279 419.27 168.104 419.404 168.045 419.592C167.986 419.768 167.957 420.02 167.957 420.348V427.256H179.717V420.207C179.717 419.633 179.564 419.299 179.26 419.205C178.967 419.111 178.398 419.064 177.555 419.064H176.711V417.324C177.566 417.336 178.41 417.348 179.242 417.359C180.074 417.359 180.865 417.359 181.615 417.359C181.674 417.359 181.973 417.359 182.512 417.359C183.062 417.348 183.666 417.342 184.322 417.342C184.979 417.33 185.494 417.324 185.869 417.324V419.064H185.043C184.34 419.064 183.842 419.105 183.549 419.188C183.256 419.258 183.074 419.375 183.004 419.539C182.945 419.703 182.916 419.926 182.916 420.207V436.783C182.916 437.111 182.922 437.387 182.934 437.609C182.957 437.82 183.109 437.984 183.391 438.102C183.684 438.207 184.234 438.26 185.043 438.26H185.869V440C185.084 440 184.316 439.994 183.566 439.982C182.828 439.971 181.938 439.965 180.895 439.965C180.004 439.965 179.242 439.971 178.609 439.982C177.977 439.994 177.344 440 176.711 440V438.26H177.555C178.27 438.26 178.773 438.207 179.066 438.102C179.371 437.984 179.553 437.82 179.611 437.609C179.682 437.398 179.717 437.146 179.717 436.854V429.137H167.957V436.959C167.957 437.639 168.098 438.025 168.379 438.119C168.66 438.213 169.234 438.26 170.102 438.26H170.945V440C170.301 440 169.674 439.994 169.064 439.982C168.455 439.971 167.688 439.965 166.762 439.965C165.707 439.965 164.811 439.971 164.072 439.982C163.334 439.994 162.578 440 161.805 440ZM187.768 440V438.26H189.789C190.34 438.26 190.662 438.107 190.756 437.803C190.861 437.498 190.914 437.17 190.914 436.818V420.734C190.914 420.184 190.873 419.768 190.791 419.486C190.721 419.205 190.387 419.064 189.789 419.064H187.908V417.359H206.717V423.09H204.73V422.246C204.73 421.273 204.684 420.588 204.59 420.189C204.496 419.791 204.355 419.551 204.168 419.469C203.98 419.387 203.746 419.346 203.465 419.346H194.131V427.467H200.195C200.348 427.467 200.471 427.443 200.564 427.396C200.67 427.35 200.752 427.197 200.811 426.939C200.881 426.67 200.934 426.213 200.969 425.568H202.375V431.229H200.969C200.898 430.268 200.799 429.705 200.67 429.541C200.541 429.365 200.348 429.277 200.09 429.277H194.131V438.031H203.623C204.104 438.031 204.414 437.832 204.555 437.434C204.707 437.023 204.789 436.191 204.801 434.938C204.801 434.773 204.801 434.604 204.801 434.428C204.801 434.252 204.801 434.07 204.801 433.883H206.77V440H187.768ZM208.193 440V438.26C208.979 438.248 209.547 438.225 209.898 438.189C210.262 438.154 210.514 438.049 210.654 437.873C210.807 437.697 210.959 437.404 211.111 436.994C211.135 436.947 211.27 436.602 211.516 435.957C211.762 435.301 212.084 434.457 212.482 433.426C212.881 432.383 213.314 431.246 213.783 430.016C214.252 428.785 214.721 427.561 215.189 426.342C215.67 425.111 216.104 423.98 216.49 422.949C216.889 421.906 217.211 421.062 217.457 420.418C217.715 419.762 217.85 419.41 217.861 419.363L218.564 417.324H222.625C222.625 417.324 222.748 417.658 222.994 418.326C223.252 418.994 223.586 419.879 223.996 420.98C224.418 422.07 224.881 423.277 225.385 424.602C225.889 425.914 226.393 427.232 226.896 428.557C227.412 429.881 227.881 431.105 228.303 432.23C228.725 433.344 229.07 434.252 229.34 434.955C229.609 435.646 229.75 436.01 229.762 436.045C229.973 436.596 230.148 437.023 230.289 437.328C230.43 437.633 230.594 437.855 230.781 437.996C230.969 438.125 231.238 438.207 231.59 438.242C231.941 438.266 232.434 438.277 233.066 438.277V440C232.422 440 231.771 439.994 231.115 439.982C230.471 439.971 229.803 439.965 229.111 439.965C228.361 439.965 227.635 439.965 226.932 439.965C226.229 439.965 225.355 439.977 224.312 440V438.312C224.582 438.312 224.822 438.312 225.033 438.312C225.244 438.312 225.438 438.307 225.613 438.295C226.141 438.283 226.492 438.248 226.668 438.189C226.855 438.119 226.949 438.002 226.949 437.838C226.949 437.779 226.938 437.703 226.914 437.609C226.891 437.504 226.861 437.393 226.826 437.275L224.963 431.686H215.77C215.758 431.709 215.688 431.908 215.559 432.283C215.43 432.658 215.271 433.115 215.084 433.654C214.896 434.193 214.703 434.738 214.504 435.289C214.316 435.828 214.158 436.285 214.029 436.66C213.9 437.023 213.836 437.211 213.836 437.223C213.719 437.516 213.66 437.727 213.66 437.855C213.66 438.078 213.777 438.213 214.012 438.26C214.258 438.307 214.662 438.33 215.225 438.33C215.4 438.33 215.594 438.33 215.805 438.33C216.016 438.33 216.244 438.33 216.49 438.33V440C215.846 440 215.189 439.994 214.521 439.982C213.865 439.971 213.209 439.965 212.553 439.965C211.838 439.965 211.17 439.965 210.549 439.965C209.928 439.965 209.143 439.977 208.193 440ZM216.438 429.91H224.312L220.375 418.977L216.438 429.91ZM233.77 440V438.26H234.666C235.404 438.26 235.926 438.189 236.23 438.049C236.535 437.896 236.717 437.697 236.775 437.451C236.834 437.205 236.863 436.93 236.863 436.625V420.752C236.863 420.658 236.863 420.564 236.863 420.471C236.875 420.377 236.881 420.283 236.881 420.189C236.881 419.838 236.764 419.562 236.529 419.363C236.295 419.164 235.674 419.064 234.666 419.064H233.77V417.324C234.039 417.336 234.314 417.348 234.596 417.359C234.877 417.359 235.164 417.365 235.457 417.377C235.762 417.377 236.066 417.377 236.371 417.377C237.496 417.377 238.615 417.377 239.729 417.377C240.854 417.377 242.031 417.359 243.262 417.324V419.064H242.014C241.381 419.064 240.93 419.135 240.66 419.275C240.391 419.416 240.227 419.598 240.168 419.82C240.109 420.043 240.08 420.289 240.08 420.559V437.996H248.078C248.629 437.996 248.951 437.492 249.045 436.484C249.15 435.465 249.203 434.059 249.203 432.266H251.225V440H233.77ZM258.15 440V438.26H259.117C259.855 438.26 260.377 438.207 260.682 438.102C260.986 437.984 261.168 437.832 261.227 437.645C261.285 437.457 261.314 437.258 261.314 437.047V419.328H257.5C256.621 419.328 255.994 419.363 255.619 419.434C255.244 419.504 255.01 419.609 254.916 419.75C254.834 419.891 254.793 420.072 254.793 420.295C254.793 420.646 254.793 421.051 254.793 421.508C254.805 421.953 254.811 422.404 254.811 422.861C254.811 423.318 254.811 423.734 254.811 424.109H252.965V417.324C252.965 417.324 253.252 417.33 253.826 417.342C254.4 417.342 255.098 417.348 255.918 417.359C256.738 417.359 257.529 417.359 258.291 417.359C259.053 417.359 259.621 417.359 259.996 417.359H266.781C267.32 417.359 267.959 417.359 268.697 417.359C269.436 417.348 270.168 417.342 270.895 417.342C271.633 417.33 272.266 417.324 272.793 417.324V424.109H270.93V420.488C270.93 420.16 270.883 419.914 270.789 419.75C270.707 419.586 270.467 419.475 270.068 419.416C269.67 419.357 269.002 419.328 268.064 419.328H264.514V437.24C264.514 437.498 264.543 437.703 264.602 437.855C264.672 437.996 264.859 438.102 265.164 438.172C265.469 438.23 265.979 438.26 266.693 438.26H267.678V440C266.998 440 266.318 440 265.639 440C264.971 439.988 264.145 439.977 263.16 439.965C263.09 439.965 262.85 439.971 262.439 439.982C262.041 439.982 261.566 439.982 261.016 439.982C260.477 439.982 259.943 439.988 259.416 440C258.889 440 258.467 440 258.15 440ZM275.113 440V438.26H275.939C276.654 438.26 277.158 438.201 277.451 438.084C277.744 437.967 277.92 437.803 277.979 437.592C278.037 437.381 278.066 437.146 278.066 436.889V420.154C278.066 419.885 278.031 419.674 277.961 419.521C277.902 419.357 277.727 419.24 277.434 419.17C277.141 419.1 276.643 419.064 275.939 419.064H275.113V417.324C275.875 417.324 276.73 417.33 277.68 417.342C278.629 417.354 279.525 417.359 280.369 417.359C280.439 417.359 280.721 417.359 281.213 417.359C281.717 417.348 282.262 417.342 282.848 417.342C283.445 417.33 283.914 417.324 284.254 417.324V419.064H283.41C282.695 419.064 282.186 419.105 281.881 419.188C281.588 419.27 281.412 419.404 281.354 419.592C281.295 419.768 281.266 420.02 281.266 420.348V427.256H293.025V420.207C293.025 419.633 292.873 419.299 292.568 419.205C292.275 419.111 291.707 419.064 290.863 419.064H290.02V417.324C290.875 417.336 291.719 417.348 292.551 417.359C293.383 417.359 294.174 417.359 294.924 417.359C294.982 417.359 295.281 417.359 295.82 417.359C296.371 417.348 296.975 417.342 297.631 417.342C298.287 417.33 298.803 417.324 299.178 417.324V419.064H298.352C297.648 419.064 297.15 419.105 296.857 419.188C296.564 419.258 296.383 419.375 296.312 419.539C296.254 419.703 296.225 419.926 296.225 420.207V436.783C296.225 437.111 296.23 437.387 296.242 437.609C296.266 437.82 296.418 437.984 296.699 438.102C296.992 438.207 297.543 438.26 298.352 438.26H299.178V440C298.393 440 297.625 439.994 296.875 439.982C296.137 439.971 295.246 439.965 294.203 439.965C293.312 439.965 292.551 439.971 291.918 439.982C291.285 439.994 290.652 440 290.02 440V438.26H290.863C291.578 438.26 292.082 438.207 292.375 438.102C292.68 437.984 292.861 437.82 292.92 437.609C292.99 437.398 293.025 437.146 293.025 436.854V429.137H281.266V436.959C281.266 437.639 281.406 438.025 281.688 438.119C281.969 438.213 282.543 438.26 283.41 438.26H284.254V440C283.609 440 282.982 439.994 282.373 439.982C281.764 439.971 280.996 439.965 280.07 439.965C279.016 439.965 278.119 439.971 277.381 439.982C276.643 439.994 275.887 440 275.113 440Z" fill="black"/>
<defs>
<filter id="filter0_dd_0_1" x="91.0001" y="39.8944" width="267.845" height="232.14" filterUnits="userSpaceOnUse" color-interpolation-filters="sRGB">
<feFlood flood-opacity="0" result="BackgroundImageFix"/>
<feColorMatrix in="SourceAlpha" type="matrix" values="0 0 0 0 0 0 0 0 0 0 0 0 0 0 0 0 0 0 127 0" result="hardAlpha"/>
<feOffset dy="4"/>
<feGaussianBlur stdDeviation="2"/>
<feComposite in2="hardAlpha" operator="out"/>
<feColorMatrix type="matrix" values="0 0 0 0 0 0 0 0 0 0 0 0 0 0 0 0 0 0 0.25 0"/>
<feBlend mode="normal" in2="BackgroundImageFix" result="effect1_dropShadow_0_1"/>
<feColorMatrix in="SourceAlpha" type="matrix" values="0 0 0 0 0 0 0 0 0 0 0 0 0 0 0 0 0 0 127 0" result="hardAlpha"/>
<feOffset dy="4"/>
<feGaussianBlur stdDeviation="2"/>
<feComposite in2="hardAlpha" operator="out"/>
<feColorMatrix type="matrix" values="0 0 0 0 0 0 0 0 0 0 0 0 0 0 0 0 0 0 0.25 0"/>
<feBlend mode="normal" in2="effect1_dropShadow_0_1" result="effect2_dropShadow_0_1"/>
<feBlend mode="normal" in="SourceGraphic" in2="effect2_dropShadow_0_1" result="shape"/>
</filter>
<filter id="filter1_i_0_1" x="117" y="158.4" width="121.567" height="91.1855" filterUnits="userSpaceOnUse" color-interpolation-filters="sRGB">
<feFlood flood-opacity="0" result="BackgroundImageFix"/>
<feBlend mode="normal" in="SourceGraphic" in2="BackgroundImageFix" result="shape"/>
<feColorMatrix in="SourceAlpha" type="matrix" values="0 0 0 0 0 0 0 0 0 0 0 0 0 0 0 0 0 0 127 0" result="hardAlpha"/>
<feOffset dy="4"/>
<feGaussianBlur stdDeviation="2"/>
<feComposite in2="hardAlpha" operator="arithmetic" k2="-1" k3="1"/>
<feColorMatrix type="matrix" values="0 0 0 0 0 0 0 0 0 0 0 0 0 0 0 0 0 0 0.25 0"/>
<feBlend mode="normal" in2="shape" result="effect1_innerShadow_0_1"/>
</filter>
<filter id="filter2_i_0_1" x="245" y="55" width="11" height="15" filterUnits="userSpaceOnUse" color-interpolation-filters="sRGB">
<feFlood flood-opacity="0" result="BackgroundImageFix"/>
<feBlend mode="normal" in="SourceGraphic" in2="BackgroundImageFix" result="shape"/>
<feColorMatrix in="SourceAlpha" type="matrix" values="0 0 0 0 0 0 0 0 0 0 0 0 0 0 0 0 0 0 127 0" result="hardAlpha"/>
<feOffset dy="4"/>
<feGaussianBlur stdDeviation="2"/>
<feComposite in2="hardAlpha" operator="arithmetic" k2="-1" k3="1"/>
<feColorMatrix type="matrix" values="0 0 0 0 0 0 0 0 0 0 0 0 0 0 0 0 0 0 0.25 0"/>
<feBlend mode="normal" in2="shape" result="effect1_innerShadow_0_1"/>
</filter>
</defs>
</svg>
