<svg width="277" height="407" viewBox="0 0 277 407" fill="none" xmlns="http://www.w3.org/2000/svg">
<g filter="url(#filter0_d_0_1)">
<path fill-rule="evenodd" clip-rule="evenodd" d="M189 21.5004C158 -23.5 113.548 14.5408 126.5 47.0004C131.407 59.2966 140.847 69.0213 149.949 78.3968C164.873 93.7709 178.886 108.206 170.5 131.5L169.5 133.5L168.5 131.5C120.5 36 15 161 4.00006 216C120.279 253.104 279.029 171.508 165 52C189 29 238.803 46.5619 252 86.5C254 92 261.117 92.9401 263.5 86.5C267.517 75.6125 236.105 24.2092 189 21.5004Z" fill="#F9F8F8"/>
<path d="M97.25 296V214.874V214C97.25 212.343 98.5931 211 100.25 211H106.25C107.907 211 109.25 212.343 109.25 214V296C109.25 297.657 107.907 299 106.25 299H100.25C98.5931 299 97.25 297.657 97.25 296Z" fill="#F9F8F8"/>
<path d="M135.25 202.17H128.25C126.593 202.17 125.25 203.513 125.25 205.17V296.17C125.25 297.826 126.593 299.17 128.25 299.17H135.25C136.907 299.17 138.25 297.826 138.25 296.17V205.17C138.25 203.513 136.907 202.17 135.25 202.17Z" fill="#F9F8F8"/>
</g>
<g filter="url(#filter1_i_0_1)">
<path d="M26 204.5L26.5 204C137 1 232 230.5 26.5 204.5L26 204.5Z" fill="#32517A"/>
</g>
<g filter="url(#filter2_i_0_1)">
<circle cx="159.5" cy="21.5" r="5.5" fill="#32517A"/>
</g>
<path d="M45.6643 318.144V364H39.4563V343.136H14.7203V364H8.51225V318.144H14.7203V338.592H39.4563V318.144H45.6643ZM81.7393 346.976L74.5393 328.32C74.3259 327.765 74.1019 327.125 73.8673 326.4C73.6326 325.653 73.4086 324.864 73.1953 324.032C72.7473 325.76 72.2886 327.2 71.8193 328.352L64.6193 346.976H81.7393ZM94.6673 364H89.8673C89.3126 364 88.8646 363.861 88.5233 363.584C88.1819 363.307 87.9259 362.955 87.7553 362.528L83.4673 351.456H62.8913L58.6033 362.528C58.4753 362.912 58.2299 363.253 57.8673 363.552C57.5046 363.851 57.0566 364 56.5233 364H51.7233L70.0593 318.144H76.3313L94.6673 364ZM140.444 341.088C140.444 344.523 139.9 347.648 138.812 350.464C137.724 353.28 136.188 355.691 134.204 357.696C132.22 359.701 129.83 361.259 127.036 362.368C124.262 363.456 121.19 364 117.82 364H100.7V318.144H117.82C121.19 318.144 124.262 318.699 127.036 319.808C129.83 320.896 132.22 322.453 134.204 324.48C136.188 326.485 137.724 328.896 138.812 331.712C139.9 334.528 140.444 337.653 140.444 341.088ZM134.076 341.088C134.076 338.272 133.692 335.755 132.924 333.536C132.156 331.317 131.068 329.44 129.66 327.904C128.252 326.368 126.545 325.195 124.54 324.384C122.534 323.573 120.294 323.168 117.82 323.168H106.908V358.976H117.82C120.294 358.976 122.534 358.571 124.54 357.76C126.545 356.949 128.252 355.787 129.66 354.272C131.068 352.736 132.156 350.859 132.924 348.64C133.692 346.421 134.076 343.904 134.076 341.088ZM172.489 346.976L165.289 328.32C165.076 327.765 164.852 327.125 164.617 326.4C164.383 325.653 164.159 324.864 163.945 324.032C163.497 325.76 163.039 327.2 162.569 328.352L155.369 346.976H172.489ZM185.417 364H180.617C180.063 364 179.615 363.861 179.273 363.584C178.932 363.307 178.676 362.955 178.505 362.528L174.217 351.456H153.641L149.353 362.528C149.225 362.912 148.98 363.253 148.617 363.552C148.255 363.851 147.807 364 147.273 364H142.473L160.809 318.144H167.081L185.417 364ZM231.194 341.088C231.194 344.523 230.65 347.648 229.562 350.464C228.474 353.28 226.938 355.691 224.954 357.696C222.97 359.701 220.58 361.259 217.786 362.368C215.012 363.456 211.94 364 208.57 364H191.45V318.144H208.57C211.94 318.144 215.012 318.699 217.786 319.808C220.58 320.896 222.97 322.453 224.954 324.48C226.938 326.485 228.474 328.896 229.562 331.712C230.65 334.528 231.194 337.653 231.194 341.088ZM224.826 341.088C224.826 338.272 224.442 335.755 223.674 333.536C222.906 331.317 221.818 329.44 220.41 327.904C219.002 326.368 217.295 325.195 215.29 324.384C213.284 323.573 211.044 323.168 208.57 323.168H197.658V358.976H208.57C211.044 358.976 213.284 358.571 215.29 357.76C217.295 356.949 219.002 355.787 220.41 354.272C221.818 352.736 222.906 350.859 223.674 348.64C224.442 346.421 224.826 343.904 224.826 341.088ZM263.239 346.976L256.039 328.32C255.826 327.765 255.602 327.125 255.367 326.4C255.133 325.653 254.909 324.864 254.695 324.032C254.247 325.76 253.789 327.2 253.319 328.352L246.119 346.976H263.239ZM276.167 364H271.367C270.813 364 270.365 363.861 270.023 363.584C269.682 363.307 269.426 362.955 269.255 362.528L264.967 351.456H244.391L240.103 362.528C239.975 362.912 239.73 363.253 239.367 363.552C239.005 363.851 238.557 364 238.023 364H233.223L251.559 318.144H257.831L276.167 364ZM95.4361 381.206V407H91.9441V395.264H78.0301V407H74.5381V381.206H78.0301V392.708H91.9441V381.206H95.4361ZM117.942 404.156L117.924 407H102.03V381.206H117.924V384.05H105.522V392.618H115.566V395.354H105.522V404.156H117.942ZM136.506 397.424L132.456 386.93C132.336 386.618 132.21 386.258 132.078 385.85C131.946 385.43 131.82 384.986 131.7 384.518C131.448 385.49 131.19 386.3 130.926 386.948L126.876 397.424H136.506ZM143.778 407H141.078C140.766 407 140.514 406.922 140.322 406.766C140.13 406.61 139.986 406.412 139.89 406.172L137.478 399.944H125.904L123.492 406.172C123.42 406.388 123.282 406.58 123.078 406.748C122.874 406.916 122.622 407 122.322 407H119.622L129.936 381.206H133.464L143.778 407ZM161.805 404.066V407H147.171V381.206H150.645V404.066H161.805ZM179.73 384.14H171.378V407H167.904V384.14H159.534V381.206H179.73V384.14ZM204.456 381.206V407H200.964V395.264H187.05V407H183.558V381.206H187.05V392.708H200.964V381.206H204.456Z" fill="#F9F8F8"/>
<defs>
<filter id="filter0_d_0_1" x="6.10352e-05" y="0.894409" width="267.845" height="306.275" filterUnits="userSpaceOnUse" color-interpolation-filters="sRGB">
<feFlood flood-opacity="0" result="BackgroundImageFix"/>
<feColorMatrix in="SourceAlpha" type="matrix" values="0 0 0 0 0 0 0 0 0 0 0 0 0 0 0 0 0 0 127 0" result="hardAlpha"/>
<feOffset dy="4"/>
<feGaussianBlur stdDeviation="2"/>
<feComposite in2="hardAlpha" operator="out"/>
<feColorMatrix type="matrix" values="0 0 0 0 0 0 0 0 0 0 0 0 0 0 0 0 0 0 0.25 0"/>
<feBlend mode="normal" in2="BackgroundImageFix" result="effect1_dropShadow_0_1"/>
<feBlend mode="normal" in="SourceGraphic" in2="effect1_dropShadow_0_1" result="shape"/>
</filter>
<filter id="filter1_i_0_1" x="26" y="119.4" width="121.567" height="91.1855" filterUnits="userSpaceOnUse" color-interpolation-filters="sRGB">
<feFlood flood-opacity="0" result="BackgroundImageFix"/>
<feBlend mode="normal" in="SourceGraphic" in2="BackgroundImageFix" result="shape"/>
<feColorMatrix in="SourceAlpha" type="matrix" values="0 0 0 0 0 0 0 0 0 0 0 0 0 0 0 0 0 0 127 0" result="hardAlpha"/>
<feOffset dy="4"/>
<feGaussianBlur stdDeviation="2"/>
<feComposite in2="hardAlpha" operator="arithmetic" k2="-1" k3="1"/>
<feColorMatrix type="matrix" values="0 0 0 0 0 0 0 0 0 0 0 0 0 0 0 0 0 0 0.25 0"/>
<feBlend mode="normal" in2="shape" result="effect1_innerShadow_0_1"/>
</filter>
<filter id="filter2_i_0_1" x="154" y="16" width="11" height="15" filterUnits="userSpaceOnUse" color-interpolation-filters="sRGB">
<feFlood flood-opacity="0" result="BackgroundImageFix"/>
<feBlend mode="normal" in="SourceGraphic" in2="BackgroundImageFix" result="shape"/>
<feColorMatrix in="SourceAlpha" type="matrix" values="0 0 0 0 0 0 0 0 0 0 0 0 0 0 0 0 0 0 127 0" result="hardAlpha"/>
<feOffset dy="4"/>
<feGaussianBlur stdDeviation="2"/>
<feComposite in2="hardAlpha" operator="arithmetic" k2="-1" k3="1"/>
<feColorMatrix type="matrix" values="0 0 0 0 0 0 0 0 0 0 0 0 0 0 0 0 0 0 0.25 0"/>
<feBlend mode="normal" in2="shape" result="effect1_innerShadow_0_1"/>
</filter>
</defs>
</svg>
